<svg width="768" height="768" viewBox="0 0 768 768" fill="none" xmlns="http://www.w3.org/2000/svg">
  <!-- Purple flame outer shape -->
  <path d="M384 130C320 180 280 240 280 310C280 380 320 440 370 480C360 520 340 560 340 600C340 680 400 730 470 730C540 730 600 680 600 600C600 550 570 510 550 470C590 430 620 380 620 320C620 240 580 180 520 140C480 200 460 260 460 320C460 380 480 420 500 450C480 460 460 480 460 510C460 550 480 580 510 580C540 580 560 560 560 530C560 500 540 480 520 470C540 450 560 420 560 380C560 340 540 300 520 270C540 250 560 220 560 180C560 140 540 110 520 90C480 130 460 170 440 210C420 170 390 150 360 140C340 160 320 190 320 230C320 270 340 300 360 320C340 340 320 370 320 410C320 450 340 480 370 500C360 520 350 550 350 580C350 640 390 680 450 680C510 680 550 640 550 580C550 540 530 510 510 490C540 460 560 420 560 370C560 320 540 280 510 250C530 230 550 200 550 160C550 120 530 90 510 70C470 110 450 150 430 190C410 150 380 130 350 120C330 140 310 170 310 210C310 250 330 280 350 300C330 320 310 350 310 390C310 430 330 460 360 480C350 500 340 530 340 560C340 620 380 660 440 660C500 660 540 620 540 560C540 520 520 490 500 470C530 440 550 400 550 350C550 300 530 260 500 230C520 210 540 180 540 140C540 100 520 70 500 50C460 90 440 130 420 170C400 130 370 110 340 100C320 120 300 150 300 190C300 230 320 260 340 280C320 300 300 330 300 370C300 410 320 440 350 460C340 480 330 510 330 540C330 600 370 640 430 640C490 640 530 600 530 540C530 500 510 470 490 450C520 420 540 380 540 330C540 280 520 240 490 210C510 190 530 160 530 120C530 80 510 50 490 30C450 70 430 110 410 150C390 110 360 90 330 80C310 100 290 130 290 170C290 210 310 240 330 260C310 280 290 310 290 350C290 390 310 420 340 440C330 460 320 490 320 520C320 580 360 620 420 620C480 620 520 580 520 520C520 480 500 450 480 430C510 400 530 360 530 310C530 260 510 220 480 190C500 170 520 140 520 100C520 60 500 30 480 10C440 50 420 90 400 130Z" fill="#9FA8DA"/>
  
  <!-- Golden/yellow inner flame -->
  <path d="M384 300C360 320 340 350 340 390C340 450 380 490 430 490C480 490 520 450 520 390C520 360 510 340 490 320C500 300 510 280 510 250C510 220 490 200 470 190C450 210 440 230 430 260C420 230 400 210 380 200C360 220 350 240 350 270C350 300 370 320 390 340C380 360 370 380 370 410C370 450 400 480 440 480C480 480 510 450 510 410C510 380 490 360 470 350C480 330 500 310 500 280C500 250 480 230 460 220C440 240 430 260 420 290C410 260 390 240 370 230C350 250 340 270 340 300C340 330 360 350 380 370C370 390 360 410 360 440C360 480 390 510 430 510C470 510 500 480 500 440C500 410 480 390 460 380C470 360 490 340 490 310C490 280 470 260 450 250C430 270 420 290 410 320C400 290 380 270 360 260C340 280 330 300 330 330C330 360 350 380 370 400C360 420 350 440 350 470C350 510 380 540 420 540C460 540 490 510 490 470C490 440 470 420 450 410C460 390 480 370 480 340C480 310 460 290 440 280C420 300 410 320 400 350Z" fill="#F9A825"/>
</svg>
